<svg xmlns="http://www.w3.org/2000/svg" width="39.97" height="43.333" viewBox="0 0 39.97 43.333"><defs><style>.a{fill:#222d32;}</style></defs><g transform="translate(-17.385)"><path class="a" d="M56.793,14.629a2.175,2.175,0,0,0-1.626-.709H45.882V8.512a8.512,8.512,0,0,0-17.024,0V13.92H19.57a2.166,2.166,0,0,0-2.175,2.385c.647,7.107,1.306,14.57,2.014,22.812A3.049,3.049,0,0,0,21.7,41.742,78.187,78.187,0,0,0,37.37,43.333a78.186,78.186,0,0,0,15.676-1.591,3.049,3.049,0,0,0,2.285-2.625c.707-8.23,1.366-15.692,2.014-22.812A2.167,2.167,0,0,0,56.793,14.629ZM30.406,8.512a6.964,6.964,0,0,1,13.928,0V13.92H30.406ZM52.734,40.226A76.637,76.637,0,0,1,37.37,41.785a76.637,76.637,0,0,1-15.363-1.559,1.514,1.514,0,0,1-1.057-1.242q-.171-1.991-.338-3.922A107.816,107.816,0,0,0,37.37,36.377a107.8,107.8,0,0,0,16.758-1.313Q53.96,37,53.789,38.985A1.514,1.514,0,0,1,52.734,40.226ZM55.8,16.165c-.416,4.57-.836,9.281-1.271,14.245l-.021,0c-1.284.2-2.591.378-3.885.532a.774.774,0,0,0,.09,1.542.786.786,0,0,0,.092-.006c1.194-.142,2.4-.306,3.585-.486q-.064.736-.129,1.48a106.137,106.137,0,0,1-33.791,0q-.065-.744-.129-1.481a113.7,113.7,0,0,0,17.029,1.279q2.384,0,4.767-.1a.774.774,0,1,0-.065-1.546,112.4,112.4,0,0,1-21.849-1.216l-.021,0c-.435-4.969-.856-9.681-1.271-14.245a.636.636,0,0,1,.155-.494.643.643,0,0,1,.481-.2h9.286v1.654a3.1,3.1,0,1,0,3.869,3,.774.774,0,0,0-1.548,0,1.548,1.548,0,1,1-2.321-1.338v1.338a.774.774,0,0,0,1.548,0V15.467H44.334v1.654a3.1,3.1,0,1,0,3.869,3,.774.774,0,0,0-1.548,0,1.548,1.548,0,1,1-2.321-1.338v1.338a.774.774,0,0,0,1.548,0V15.467h9.283a.644.644,0,0,1,.483.2A.636.636,0,0,1,55.8,16.165Z"/><path class="a" d="M301.025,323.207c-.765.069-1.541.132-2.305.185a.774.774,0,0,0,.053,1.546l.055,0c.775-.054,1.561-.118,2.337-.188a.774.774,0,1,0-.14-1.541Z" transform="translate(-253.472 -291.941)"/></g></svg>