<svg xmlns="http://www.w3.org/2000/svg" width="10" height="14.087" viewBox="0 0 10 14.087"><defs><style>.a{fill:#263238;}</style></defs><g transform="translate(-74.278 0)"><path class="a" d="M84.275,12.48,84.04,8.9a.207.207,0,0,0-.413.027l.235,3.578a1.1,1.1,0,0,1-1.093,1.167H75.787a1.1,1.1,0,0,1-1.093-1.167l.429-6.542q.006-.094.016-.186v0a4.164,4.164,0,0,1,8.293.189l.14,2.138a.207.207,0,1,0,.413-.027l-.14-2.138c0-.065-.01-.129-.017-.193V1.408a.645.645,0,0,0-.644-.644h-.675a.645.645,0,0,0-.644.644V2.461A4.56,4.56,0,0,0,81.3,2.13c0-.036,0-.071,0-.105a2.024,2.024,0,1,0-4.049,0c0,.035,0,.07,0,.105a4.562,4.562,0,0,0-.566.331V1.408a.645.645,0,0,0-.644-.644h-.675a.645.645,0,0,0-.644.644V2.431a.207.207,0,0,0,.414,0V1.408a.231.231,0,0,1,.231-.231h.675a.231.231,0,0,1,.231.231V2.781c-.043.038-.086.076-.129.116a4.574,4.574,0,0,0-1.008,1.38V3.259a.207.207,0,0,0-.414,0V5.746c-.007.064-.013.128-.017.193l-.429,6.542a1.509,1.509,0,0,0,1.505,1.607H82.77a1.509,1.509,0,0,0,1.505-1.607ZM78.614,1.708a.736.736,0,0,1,1.329,0,4.607,4.607,0,0,0-1.329,0Zm3.665-.3a.231.231,0,0,1,.231-.231h.675a.231.231,0,0,1,.231.231V4.276A4.573,4.573,0,0,0,82.407,2.9c-.042-.04-.085-.078-.129-.116V1.408Zm-3-.995a1.613,1.613,0,0,1,1.609,1.538,4.541,4.541,0,0,0-.482-.151,1.149,1.149,0,0,0-2.254,0,4.557,4.557,0,0,0-.482.151A1.613,1.613,0,0,1,79.278.414Z"/><path class="a" d="M135.6,108.368a2.911,2.911,0,0,1,5.822,0,.207.207,0,0,0,.206.194h.013a.207.207,0,0,0,.193-.219,3.542,3.542,0,0,0-1.043-2.313,3.224,3.224,0,0,0-4.561,0,3.542,3.542,0,0,0-1.043,2.313.207.207,0,0,0,.413.026Z" transform="translate(-59.236 -102.193)"/><path class="a" d="M133.327,290.867h-3.782a.207.207,0,0,0,0,.414h3.782a.763.763,0,0,0,.757-.8l-.188-3.26a.759.759,0,0,0-.757-.714h-5.2a.759.759,0,0,0-.757.714l-.188,3.26a.763.763,0,0,0,.757.8h.973a.207.207,0,1,0,0-.414h-.973a.346.346,0,0,1-.344-.364l.145-2.514h5.025v.468a.207.207,0,0,0,.414,0v-.468h.541l.145,2.514A.346.346,0,0,1,133.327,290.867Zm-5.757-3.292.019-.332a.345.345,0,0,1,.344-.325h5.2a.345.345,0,0,1,.344.325l.019.332Z" transform="translate(-51.258 -278.621)"/></g></svg>