<svg xmlns="http://www.w3.org/2000/svg" width="21.056" height="21.056" viewBox="0 0 21.056 21.056"><defs><style>.a{fill:#263238;}</style></defs><g transform="translate(0 0)"><g transform="translate(0 0)"><path class="a" d="M19.367,13.821a11.955,11.955,0,0,1-3.754-.6,1.653,1.653,0,0,0-1.669.352l-2.368,1.787A13.084,13.084,0,0,1,5.693,9.481L7.428,7.175A1.7,1.7,0,0,0,7.846,5.45a11.973,11.973,0,0,1-.6-3.761A1.691,1.691,0,0,0,5.557,0H1.69A1.692,1.692,0,0,0,0,1.69,19.389,19.389,0,0,0,19.367,21.056a1.692,1.692,0,0,0,1.69-1.69V15.511A1.692,1.692,0,0,0,19.367,13.821Zm.52,5.546a.52.52,0,0,1-.52.52A18.217,18.217,0,0,1,1.17,1.69a.52.52,0,0,1,.52-.52H5.557a.52.52,0,0,1,.52.52,13.117,13.117,0,0,0,.657,4.119.582.582,0,0,1-.185.6L4.538,9.071a.585.585,0,0,0-.055.617,14.52,14.52,0,0,0,6.883,6.884.583.583,0,0,0,.619-.054l2.724-2.064a.516.516,0,0,1,.53-.123,13.135,13.135,0,0,0,4.127.659.52.52,0,0,1,.52.52Z"/></g></g></svg>