<svg xmlns="http://www.w3.org/2000/svg" width="21.316" height="19.876" viewBox="0 0 21.316 19.876"><defs><style>.a{fill:#fff;stroke:#212c31;stroke-width:0.25px;}</style></defs><g transform="translate(0.125 -16.819)"><path class="a" d="M184.788,97.76a.615.615,0,1,0,.424-.708A.614.614,0,0,0,184.788,97.76Z" transform="translate(-177.2 -76.773)"/><path class="a" d="M20.837,29.577c-3.346-9.741-3.116-9.074-3.13-9.107a3.141,3.141,0,0,0-1.855-1.72C15.733,18.709,9,17.134,8.8,17.066a2.07,2.07,0,0,0-2.009.445L1.021,22.823A3.175,3.175,0,0,0,0,25.154V34.56a2.007,2.007,0,0,0,2,2.01H14.349a2.007,2.007,0,0,0,2-2.01V33.65l3.442-1.473a2,2,0,0,0,1.047-2.6ZM14.349,35.34H2a.776.776,0,0,1-.769-.78V25.154a1.942,1.942,0,0,1,.624-1.426c4.945-4.55,1.889-1.712,5.792-5.312a.78.78,0,0,1,.763-.179c.249.074-.19-.284,6.085,5.491a1.942,1.942,0,0,1,.624,1.426V34.56a.776.776,0,0,1-.769.78ZM19.3,31.048l-2.956,1.265V25.154a3.175,3.175,0,0,0-1.021-2.331l-4.3-3.956,4.449,1.056a1.909,1.909,0,0,1,1.092,1.015c3.34,9.722,3.115,9.07,3.129,9.1a.766.766,0,0,1-.394,1.006Z"/><path class="a" d="M151.964,201.173a.615.615,0,0,0-.805.329l-2.994,7.136a.615.615,0,1,0,1.134.476l2.994-7.136A.615.615,0,0,0,151.964,201.173Z" transform="translate(-142.044 -176.604)"/><path class="a" d="M81,195.17a1.949,1.949,0,1,0-1.938,2.153A2.056,2.056,0,0,0,81,195.17Zm-1.938.923a.955.955,0,1,1,.708-.923A.849.849,0,0,1,79.066,196.092Z" transform="translate(-73.966 -168.829)"/><path class="a" d="M230.423,312.011a2.165,2.165,0,1,0,1.938,2.153A2.056,2.056,0,0,0,230.423,312.011Zm0,3.075a.955.955,0,1,1,.708-.923A.849.849,0,0,1,230.423,315.086Z" transform="translate(-219.117 -282.944)"/></g></svg>