<svg xmlns="http://www.w3.org/2000/svg" width="22.2" height="21.852" viewBox="0 0 22.2 21.852"><defs><style>.a{fill:#263238;}</style></defs><g transform="translate(0 0)"><g transform="translate(0 0)"><path class="a" d="M22.12,21.261l-1.289-3.752a9.387,9.387,0,0,0-8.273-13.5,9.377,9.377,0,0,0-9.528,9.254,6.833,6.833,0,0,0-2.074,8.4L.067,24.246a1.221,1.221,0,0,0,1.15,1.617,1.229,1.229,0,0,0,.4-.067L4.2,24.908a6.862,6.862,0,0,0,2.921.66h.011a6.823,6.823,0,0,0,5.517-2.805,9.406,9.406,0,0,0,3.875-.949L20.278,23.1a1.461,1.461,0,0,0,.475.08,1.451,1.451,0,0,0,1.367-1.922ZM7.134,24.246H7.125a5.526,5.526,0,0,1-2.567-.637.661.661,0,0,0-.524-.041l-2.65.911.911-2.65a.661.661,0,0,0-.041-.524,5.51,5.51,0,0,1,.9-6.388A9.413,9.413,0,0,0,11,22.66,5.5,5.5,0,0,1,7.134,24.246ZM20.84,21.823a.12.12,0,0,1-.132.031l-4.017-1.38a.661.661,0,0,0-.524.041,8.071,8.071,0,0,1-3.748.931h-.012a8.088,8.088,0,0,1-8.055-7.925,8.056,8.056,0,0,1,8.186-8.186,8.058,8.058,0,0,1,6.994,11.816.661.661,0,0,0-.041.524l1.38,4.017A.12.12,0,0,1,20.84,21.823Z" transform="translate(0 -4.011)"/></g><g transform="translate(7.809 5.875)"><path class="a" d="M188.627,139.512h-7.872a.661.661,0,0,0,0,1.321h7.872a.661.661,0,0,0,0-1.321Z" transform="translate(-180.094 -139.512)"/></g><g transform="translate(7.809 8.593)"><path class="a" d="M188.627,202.183h-7.872a.661.661,0,0,0,0,1.321h7.872a.661.661,0,0,0,0-1.321Z" transform="translate(-180.094 -202.183)"/></g><g transform="translate(7.809 11.31)"><path class="a" d="M185.6,264.852h-4.842a.661.661,0,1,0,0,1.321H185.6a.661.661,0,0,0,0-1.321Z" transform="translate(-180.093 -264.852)"/></g></g></svg>