<svg xmlns="http://www.w3.org/2000/svg" width="46.085" height="49.373" viewBox="0 0 46.085 49.373"><defs><style>.a{fill:#fff;}</style></defs><path class="a" d="M23.539,4.935a.823.823,0,0,0-.823.823v2.7L18.392,9.9l-8.184,1.637a.828.828,0,0,0-.28.112L.876,17.406a.823.823,0,0,0-.253,1.137l5.76,9.052a.823.823,0,0,0,1.248.164L9.55,26.02V48.548a.823.823,0,0,0,.823.823H36.706a.823.823,0,0,0,.823-.823V26.2l1.948,1.593a.805.805,0,0,0,.634.178.816.816,0,0,0,.561-.343l5.76-8.229a.822.822,0,0,0-.19-1.137l-9.052-6.583a.816.816,0,0,0-.322-.141L28.686,9.9,24.362,8.456V6.463a3.286,3.286,0,1,0-4.114-3.175.823.823,0,0,0,1.646,0,1.646,1.646,0,1,1,1.646,1.646Zm0,4.982L27.6,11.271a4.095,4.095,0,0,1-8.114,0Zm21.081,9.2-4.788,6.841-2.6-2.132a.823.823,0,0,0-1.345.638V47.725H11.2V24.16a.823.823,0,0,0-1.377-.609L7.251,25.886,2.457,18.354l8.229-5.236,7.176-1.435a5.76,5.76,0,0,0,11.351,0l7.152,1.431Zm0,0" transform="translate(-0.495 0.002)"/></svg>