<svg xmlns="http://www.w3.org/2000/svg" width="12.508" height="12.508" viewBox="0 0 12.508 12.508"><defs><style>.a{fill:#fff;}</style></defs><path class="a" d="M5.281,0H.463A.465.465,0,0,0,0,.463V5.281a.465.465,0,0,0,.463.463H5.281a.465.465,0,0,0,.463-.463V.463A.465.465,0,0,0,5.281,0ZM4.818,4.818H.927V.927H4.818Z"/><g transform="translate(6.764)"><path class="a" d="M151.281,0h-4.818A.465.465,0,0,0,146,.463V5.281a.465.465,0,0,0,.463.463h4.818a.465.465,0,0,0,.463-.463V.463A.465.465,0,0,0,151.281,0Zm-.463,4.818h-3.892V.927h3.892Z" transform="translate(-146)"/></g><g transform="translate(0 6.764)"><path class="a" d="M5.281,146H.463a.465.465,0,0,0-.463.463v4.818a.465.465,0,0,0,.463.463H5.281a.465.465,0,0,0,.463-.463v-4.818A.465.465,0,0,0,5.281,146Zm-.463,4.818H.927v-3.892H4.818Z" transform="translate(0 -146)"/></g><g transform="translate(6.764 6.764)"><path class="a" d="M151.281,146h-4.818a.465.465,0,0,0-.463.463v4.818a.465.465,0,0,0,.463.463h4.818a.465.465,0,0,0,.463-.463v-4.818A.465.465,0,0,0,151.281,146Zm-.463,4.818h-3.892v-3.892h3.892Z" transform="translate(-146 -146)"/></g></svg>