<svg xmlns="http://www.w3.org/2000/svg" width="22.872" height="16.518" viewBox="0 0 22.872 16.518"><defs><style>.a{fill:#090909;}</style></defs><path class="a" d="M21.919,124.574H.953a.953.953,0,0,1,0-1.906H21.919a.953.953,0,0,1,0,1.906Zm0,0" transform="translate(0 -115.362)"/><path class="a" d="M21.919,1.906H.953A.953.953,0,0,1,.953,0H21.919a.953.953,0,1,1,0,1.906Zm0,0"/><path class="a" d="M13.816,247.238H.6c-.332,0-.6-.427-.6-.953s.269-.953.6-.953H13.816c.332,0,.6.427.6.953S14.148,247.238,13.816,247.238Zm0,0" transform="translate(0 -230.719)"/></svg>