<svg xmlns="http://www.w3.org/2000/svg" width="15.761" height="10.164" viewBox="0 0 15.761 11.164"><defs><style>.a{fill:#fff;}</style></defs><g transform="translate(0 -74.666)"><g transform="translate(0 80.576)"><g transform="translate(0 0)"><path class="a" d="M4.6,266.668H2.627a2.627,2.627,0,1,0,0,5.254H4.6a2.627,2.627,0,1,0,0-5.254Zm0,4.6H2.627a1.97,1.97,0,1,1,0-3.94H4.6a1.97,1.97,0,1,1,0,3.94Z" transform="translate(0 -266.668)"/></g></g><g transform="translate(8.537 80.576)"><g transform="translate(0 0)"><path class="a" d="M281.931,266.668h-1.97a2.627,2.627,0,0,0,0,5.254h1.97a2.627,2.627,0,0,0,0-5.254Zm0,4.6h-1.97a1.97,1.97,0,1,1,0-3.94h1.97a1.97,1.97,0,0,1,0,3.94Z" transform="translate(-277.334 -266.668)"/></g></g><g transform="translate(6.567 82.554)"><path class="a" d="M215.839,331.294a2,2,0,0,0-2.365,0,.328.328,0,1,0,.395.525,1.332,1.332,0,0,1,1.575,0,.323.323,0,0,0,.2.066.329.329,0,0,0,.2-.591Z" transform="translate(-213.343 -330.908)"/></g><g transform="translate(0.15 74.666)"><path class="a" d="M9.372,74.888a1.318,1.318,0,0,0-1.947.587L4.9,82.269a.329.329,0,0,0,.193.423.337.337,0,0,0,.115.02.328.328,0,0,0,.307-.213l2.521-6.779a.662.662,0,0,1,.975-.286.328.328,0,1,0,.364-.546Z" transform="translate(-4.876 -74.666)"/></g><g transform="translate(10.969 74.666)"><g transform="translate(0 0)"><path class="a" d="M360.951,82.279l-2.533-6.811a1.318,1.318,0,0,0-1.94-.571.328.328,0,0,0,.364.546.662.662,0,0,1,.967.27l2.526,6.794a.328.328,0,1,0,.615-.229Z" transform="translate(-356.332 -74.676)"/></g></g></g></svg>