<svg xmlns="http://www.w3.org/2000/svg" width="11.356" height="11.64" viewBox="0 0 11.356 11.64"><defs><style>.a{fill:#fff;}</style></defs><path class="a" d="M11.362,0H.985A.487.487,0,0,0,.55.265.494.494,0,0,0,.589.779l3.8,5.356,0,.005a1.086,1.086,0,0,1,.213.645v4.366a.485.485,0,0,0,.486.489.5.5,0,0,0,.191-.038l2.136-.815a.463.463,0,0,0,.319-.457V6.785a1.086,1.086,0,0,1,.213-.645l0-.005,3.8-5.356A.494.494,0,0,0,11.8.265.488.488,0,0,0,11.362,0ZM7.476,5.79a1.682,1.682,0,0,0-.328.995v3.474L5.2,11V6.785a1.681,1.681,0,0,0-.328-.995L1.18.591h9.988Zm0,0" transform="translate(-0.496 0)"/></svg>