<svg xmlns="http://www.w3.org/2000/svg" width="19.32" height="17.189" viewBox="0 0 19.32 17.189"><defs><style>.a{fill:#f29239;}</style></defs><path class="a" d="M17.788,1.682A5.2,5.2,0,0,0,13.923,0a4.86,4.86,0,0,0-3.036,1.048A6.211,6.211,0,0,0,9.66,2.329,6.207,6.207,0,0,0,8.433,1.048,4.86,4.86,0,0,0,5.4,0,5.2,5.2,0,0,0,1.533,1.682,6.039,6.039,0,0,0,0,5.806a7.191,7.191,0,0,0,1.916,4.707,40.861,40.861,0,0,0,4.8,4.5c.665.566,1.418,1.209,2.2,1.892a1.134,1.134,0,0,0,1.493,0c.782-.684,1.536-1.326,2.2-1.893a40.838,40.838,0,0,0,4.8-4.5A7.19,7.19,0,0,0,19.32,5.806a6.038,6.038,0,0,0-1.533-4.124Zm0,0" transform="translate(-0.001)"/></svg>