<svg xmlns="http://www.w3.org/2000/svg" width="12" height="13.846" viewBox="0 0 12 13.846"><defs><style>.a{fill:#263238;}</style></defs><path class="a" d="M58.432,17.5l-.777-.234A1.618,1.618,0,0,0,56.077,16H51.923a1.618,1.618,0,0,0-1.578,1.271l-.777.234A2.074,2.074,0,0,0,48,19.518v8.712a.691.691,0,0,0,.231.515v.869a.231.231,0,0,0,.231.231h1.385a.231.231,0,0,0,.231-.231v-.869a.691.691,0,0,0,.23-.5,1.115,1.115,0,0,0,.462.2v.71a.231.231,0,0,0,.231.231h6a.231.231,0,0,0,.231-.231v-.71a1.115,1.115,0,0,0,.462-.2.691.691,0,0,0,.23.5v.869a.231.231,0,0,0,.231.231h1.385a.231.231,0,0,0,.231-.231v-.869A.691.691,0,0,0,60,28.231V19.518A2.074,2.074,0,0,0,58.432,17.5Zm-2.224-1.036A1.156,1.156,0,0,1,57.225,17.5l-2.551,1.7Zm-3.371.916h2.326L54,19.452Zm2.586-.462H52.577l-.26-.462h3.365Zm-3.63-.454L53.327,19.2l-2.552-1.7A1.156,1.156,0,0,1,51.792,16.469ZM49.615,29.385h-.923v-.462h.923Zm7.154-.462H51.231v-.462h5.538ZM57.033,28H50.967a.66.66,0,0,1-.66-.66V21.077a.231.231,0,1,0-.462,0v7.154a.231.231,0,0,1-.231.231h-.923a.231.231,0,0,1-.231-.231V19.518a1.613,1.613,0,0,1,1.224-1.567l.01,0,.656-.2a.23.23,0,0,0,.058.056l2.9,1.932v3.184a.231.231,0,1,0,.462,0V20.047l.1.069a.231.231,0,0,0,.256,0l.1-.069v2.877a.231.231,0,1,0,.462,0V19.739l2.9-1.932a.23.23,0,0,0,.058-.056l.656.2.01,0a1.613,1.613,0,0,1,1.224,1.567v8.712a.231.231,0,0,1-.231.231h-.923a.231.231,0,0,1-.231-.231V21.077a.231.231,0,1,0-.462,0V27.34a.66.66,0,0,1-.66.66Zm2.275,1.385h-.923v-.462h.923Z" transform="translate(-48 -16)"/></svg>