<svg xmlns="http://www.w3.org/2000/svg" width="22.769" height="21.724" viewBox="0 0 22.769 21.724"><defs><style>.a{fill:none;stroke:#707070;}</style></defs><g transform="translate(0.521 -12.103)"><g transform="translate(0 12.675)"><g transform="translate(0 0)"><path class="a" d="M21.362,21.85l-9.748-8.882a1.109,1.109,0,0,0-1.5,0L.365,21.85a1.114,1.114,0,0,0,.75,1.938H2.672v8.9a.639.639,0,0,0,.639.639H8.654a.639.639,0,0,0,.639-.639v-5.4h3.14v5.4a.639.639,0,0,0,.639.639h5.343a.639.639,0,0,0,.639-.639v-8.9h1.557a1.114,1.114,0,0,0,.75-1.938Z" transform="translate(0 -12.675)"/></g></g><g transform="translate(14.597 13.951)"><g transform="translate(0 0)"><path class="a" d="M348.264,42.73h-4.291l4.93,4.483V43.369A.639.639,0,0,0,348.264,42.73Z" transform="translate(-343.973 -42.73)"/></g></g></g></svg>