<svg xmlns="http://www.w3.org/2000/svg" width="17.5" height="17.499" viewBox="0 0 17.5 17.499"><defs><style>.a{fill:#fff;}</style></defs><path class="a" d="M11.793,6.848a.381.381,0,0,0,.38-.38V1.9a1.9,1.9,0,0,0-1.9-1.9H1.9A1.9,1.9,0,0,0,0,1.9V15.6a1.9,1.9,0,0,0,1.9,1.9h8.369a1.9,1.9,0,0,0,1.9-1.9V11.032a.38.38,0,1,0-.761,0V15.6a1.143,1.143,0,0,1-1.141,1.141H1.9A1.143,1.143,0,0,1,.761,15.6V1.9A1.143,1.143,0,0,1,1.9.761h8.369A1.143,1.143,0,0,1,11.413,1.9V6.467A.381.381,0,0,0,11.793,6.848Z"/><g transform="translate(4.565 8.369)"><path class="a" d="M140.554,234.667H128.38a.38.38,0,1,0,0,.761h12.174a.38.38,0,1,0,0-.761Z" transform="translate(-128 -234.667)"/></g><g transform="translate(14.456 6.088)"><path class="a" d="M408.26,173.1l-2.283-2.283a.38.38,0,1,0-.538.538l2.013,2.013-2.013,2.013a.381.381,0,0,0,.538.539l2.283-2.283A.381.381,0,0,0,408.26,173.1Z" transform="translate(-405.328 -170.704)"/></g></svg>