<svg xmlns="http://www.w3.org/2000/svg" width="16.411" height="19.4" viewBox="0 0 16.411 19.4"><defs><style>.a{fill:#263238;}</style></defs><g transform="translate(0 0)"><g transform="translate(0 0)"><g transform="translate(0)"><path class="a" d="M53.458,2.4a8.205,8.205,0,0,0-14.007,5.8c0,4.434,4.192,8.121,6.444,10.1.313.275.583.513.8.714a1.414,1.414,0,0,0,1.925,0c.215-.2.486-.439.8-.714,2.252-1.981,6.444-5.669,6.444-10.1A8.152,8.152,0,0,0,53.458,2.4ZM48.667,17.455c-.32.281-.6.524-.824.737a.274.274,0,0,1-.373,0c-.228-.213-.5-.456-.824-.737-2.117-1.863-6.059-5.33-6.059-9.249a7.069,7.069,0,0,1,14.138,0C54.725,12.125,50.784,15.592,48.667,17.455Z" transform="translate(-39.451)"/></g></g><g transform="translate(4.59 4.279)"><g transform="translate(0)"><path class="a" d="M164.186,112.938a3.616,3.616,0,1,0,3.616,3.616A3.62,3.62,0,0,0,164.186,112.938Zm0,6.1a2.48,2.48,0,1,1,2.48-2.48A2.482,2.482,0,0,1,164.186,119.033Z" transform="translate(-160.57 -112.938)"/></g></g></g></svg>