<svg xmlns="http://www.w3.org/2000/svg" width="19.557" height="19.556" viewBox="0 0 19.557 19.556"><defs><style>.a{fill:#263238;}</style></defs><g transform="translate(0 0)"><g transform="translate(0 0)"><path class="a" d="M18.813,4.533,10.177.157l0,0A1.35,1.35,0,0,0,8.951.167l-3.7,1.966a.577.577,0,0,0-.087.046L.722,4.534A1.342,1.342,0,0,0,0,5.727v8.131a1.342,1.342,0,0,0,.722,1.193l8.226,4.366,0,0a1.35,1.35,0,0,0,1.222.011l8.64-4.378a1.338,1.338,0,0,0,.744-1.2V5.737A1.338,1.338,0,0,0,18.813,4.533ZM9.482,1.182a.2.2,0,0,1,.18,0l8.084,4.1L14.6,6.843,6.7,2.66ZM8.993,18.144,1.257,14.038l0,0a.2.2,0,0,1-.108-.178V6.244l7.847,4.092Zm.579-8.8-7.8-4.069L5.474,3.31l7.864,4.161Zm8.84,4.5a.2.2,0,0,1-.111.18l-8.162,4.136V10.343L13.9,8.472v1.962a.573.573,0,0,0,1.146,0V7.9l3.37-1.678v7.624Z" transform="translate(0 -0.015)"/></g></g></svg>