<svg xmlns="http://www.w3.org/2000/svg" width="17.559" height="21.047" viewBox="0 0 17.559 21.047"><defs><style>.a{fill:#707070;}</style></defs><g transform="translate(0 0)"><path class="a" d="M92.1,10.139a4.905,4.905,0,0,0,3.584-1.485A4.905,4.905,0,0,0,97.17,5.069a4.906,4.906,0,0,0-1.485-3.584,5.068,5.068,0,0,0-7.168,0,4.905,4.905,0,0,0-1.485,3.584,4.905,4.905,0,0,0,1.485,3.584A4.907,4.907,0,0,0,92.1,10.139ZM89.389,2.357a3.835,3.835,0,0,1,5.424,0,3.665,3.665,0,0,1,1.124,2.712,3.665,3.665,0,0,1-1.124,2.712,3.834,3.834,0,0,1-5.424,0,3.664,3.664,0,0,1-1.124-2.712,3.664,3.664,0,0,1,1.124-2.712Zm0,0" transform="translate(-83.454 0)"/><path class="a" d="M17.517,253.334a12.521,12.521,0,0,0-.171-1.33,10.478,10.478,0,0,0-.327-1.337,6.6,6.6,0,0,0-.55-1.247,4.7,4.7,0,0,0-.829-1.08,3.655,3.655,0,0,0-1.191-.748,4.115,4.115,0,0,0-1.52-.275,1.543,1.543,0,0,0-.824.349c-.247.161-.536.347-.858.553a4.918,4.918,0,0,1-1.111.489,4.312,4.312,0,0,1-2.717,0,4.9,4.9,0,0,1-1.11-.489c-.319-.2-.608-.39-.859-.554a1.541,1.541,0,0,0-.824-.349,4.11,4.11,0,0,0-1.52.275,3.651,3.651,0,0,0-1.191.748,4.7,4.7,0,0,0-.829,1.08,6.617,6.617,0,0,0-.55,1.247A10.5,10.5,0,0,0,.212,252a12.436,12.436,0,0,0-.171,1.33c-.028.4-.042.82-.042,1.243a3.5,3.5,0,0,0,1.038,2.644,3.736,3.736,0,0,0,2.675.976H13.847a3.737,3.737,0,0,0,2.675-.976,3.493,3.493,0,0,0,1.038-2.644c0-.424-.014-.842-.043-1.243Zm-1.846,2.994a2.516,2.516,0,0,1-1.824.636H3.712a2.516,2.516,0,0,1-1.824-.636,2.282,2.282,0,0,1-.655-1.751c0-.394.013-.784.039-1.158a11.216,11.216,0,0,1,.154-1.2,9.263,9.263,0,0,1,.288-1.179,5.388,5.388,0,0,1,.447-1.014,3.485,3.485,0,0,1,.609-.8,2.425,2.425,0,0,1,.792-.492,2.838,2.838,0,0,1,.971-.187c.043.023.12.067.245.148.254.165.546.354.869.56a6.11,6.11,0,0,0,1.394.623,5.545,5.545,0,0,0,3.475,0,6.116,6.116,0,0,0,1.395-.623c.331-.211.615-.394.868-.56.125-.081.2-.125.245-.148a2.84,2.84,0,0,1,.972.187,2.428,2.428,0,0,1,.792.492,3.476,3.476,0,0,1,.609.8,5.369,5.369,0,0,1,.448,1.014,9.242,9.242,0,0,1,.288,1.179,11.311,11.311,0,0,1,.154,1.2h0c.026.372.039.762.04,1.157a2.282,2.282,0,0,1-.655,1.75Zm0,0" transform="translate(0 -237.15)"/></g></svg>