<svg xmlns="http://www.w3.org/2000/svg" width="34.999" height="34.999" viewBox="0 0 14.999 14.999"><defs><style>.a{fill:#f44336;}.b{fill:#fafafa;}</style></defs><path class="a" d="M7.5,0A7.5,7.5,0,1,0,15,7.5,7.508,7.508,0,0,0,7.5,0Zm0,0"/><path class="b" d="M161.178,160.294a.625.625,0,1,1-.884.884l-1.878-1.878-1.878,1.878a.625.625,0,0,1-.884-.884l1.878-1.878-1.878-1.878a.625.625,0,0,1,.884-.884l1.878,1.878,1.878-1.878a.625.625,0,0,1,.884.884l-1.878,1.878Zm0,0" transform="translate(-150.917 -150.917)"/></svg>