<svg xmlns="http://www.w3.org/2000/svg" width="21.056" height="21.056" viewBox="0 0 21.056 21.056"><defs><style>.a{fill:#263238;}</style></defs><path class="a" d="M150,120h7.4v1.234H150Z" transform="translate(-143.831 -115.065)"/><path class="a" d="M60,120h2.467v1.234H60Z" transform="translate(-57.533 -115.065)"/><path class="a" d="M150,180h7.4v1.234H150Z" transform="translate(-143.831 -172.598)"/><path class="a" d="M60,180h2.467v1.234H60Z" transform="translate(-57.533 -172.598)"/><path class="a" d="M18.506,9.87V0H0V13.571H2.467v7.485H21.056V9.87ZM17.272,1.234V2.467H6.169V1.234Zm-16.039,0h3.7V2.467h-3.7Zm0,11.1V3.7H17.272V9.87H2.467v2.467Zm18.588,7.485H3.7V11.1H19.822Z"/><path class="a" d="M110.835,283.737l-1.139-2.279-1.139,2.279-2.519.379,1.815,1.788-.418,2.513,2.261-1.174,2.261,1.174-.418-2.513,1.815-1.788Zm-.5,2.448-.64-.332-.64.332.118-.711-.513-.506.713-.107.322-.645.322.645.713.107-.513.506Z" transform="translate(-101.676 -269.883)"/><path class="a" d="M290.835,283.737l-1.139-2.279-1.139,2.279-2.519.379,1.815,1.788-.418,2.513,2.261-1.174,2.261,1.174-.418-2.513,1.815-1.788Zm-.5,2.448-.64-.332-.64.332.118-.711-.513-.506.713-.107.322-.645.322.645.713.107-.513.506Z" transform="translate(-274.274 -269.883)"/></svg>