<svg xmlns="http://www.w3.org/2000/svg" width="10.454" height="10.64" viewBox="0 0 10.454 10.64"><defs><style>.a{fill:#263238;}</style></defs><g transform="translate(-4.457)"><g transform="translate(4.457)"><path class="a" d="M251.549,147.7h2.66a.183.183,0,0,0,.19-.19v-1.14a.183.183,0,0,0-.19-.19h-2.66a.183.183,0,0,0-.19.19v1.14a.183.183,0,0,0,.19.19Z" transform="translate(-246.224 -143.141)"/><path class="a" d="M251.552,1.52h1.52a.183.183,0,0,0,.19-.19V.19a.183.183,0,0,0-.19-.19h-1.52a.183.183,0,0,0-.19.19V1.33a.183.183,0,0,0,.19.19Z" transform="translate(-246.227 0)"/><path class="a" d="M8.451,8.36H7.311V.19A.183.183,0,0,0,7.121,0H5.981a.183.183,0,0,0-.19.19V8.36H4.651a.176.176,0,0,0-.178.119.181.181,0,0,0,.042.208l1.9,1.9a.214.214,0,0,0,.137.053.2.2,0,0,0,.137-.053L8.582,8.692a.223.223,0,0,0,.059-.142.183.183,0,0,0-.19-.19Z" transform="translate(-4.457 0)"/><path class="a" d="M256.628,438.59a.185.185,0,0,0-.137-.053h-4.94a.183.183,0,0,0-.19.19v1.14a.183.183,0,0,0,.19.19h4.94a.183.183,0,0,0,.19-.19v-1.14A.185.185,0,0,0,256.628,438.59Z" transform="translate(-246.227 -429.416)"/><path class="a" d="M251.549,293.884h3.8a.183.183,0,0,0,.19-.19v-1.14a.183.183,0,0,0-.19-.19h-3.8a.183.183,0,0,0-.19.19v1.14a.183.183,0,0,0,.19.19Z" transform="translate(-246.224 -286.284)"/></g></g></svg>