<svg xmlns="http://www.w3.org/2000/svg" width="34.451" height="33.529" viewBox="0 0 34.451 33.529"><defs><style>.a{fill:#fff;}</style></defs><g transform="translate(0 0)"><path class="a" d="M100.25,350.322a3.6,3.6,0,1,0,3.6,3.6A3.6,3.6,0,0,0,100.25,350.322Zm0,5.595a2,2,0,1,1,2-2A2,2,0,0,1,100.25,355.917Z" transform="translate(-89.26 -323.987)"/><path class="a" d="M298.781,350.322a3.6,3.6,0,1,0,3.6,3.6A3.6,3.6,0,0,0,298.781,350.322Zm0,5.595a2,2,0,1,1,2-2A2,2,0,0,1,298.781,355.917Z" transform="translate(-272.605 -323.987)"/><path class="a" d="M34.288,11.383a1,1,0,0,0-.639-.32L7.633,10.7l-.719-2.2A3.677,3.677,0,0,0,3.477,6.028H.8a.8.8,0,1,0,0,1.6H3.477a2.078,2.078,0,0,1,1.918,1.4L10.47,24.331l-.4.919a3.836,3.836,0,0,0,.36,3.477,3.717,3.717,0,0,0,3,1.678H28.973a.8.8,0,1,0,0-1.6H13.427a2.038,2.038,0,0,1-1.678-.959,2.2,2.2,0,0,1-.2-1.918l.32-.719,16.824-1.758a4.4,4.4,0,0,0,3.8-3.357l1.918-8.032A.679.679,0,0,0,34.288,11.383Zm-3.357,8.352a2.717,2.717,0,0,1-2.438,2.118L11.869,23.572,8.152,12.3l24.5.36Z" transform="translate(0 -6.028)"/></g></svg>