<svg xmlns="http://www.w3.org/2000/svg" width="20.877" height="13.186" viewBox="0 0 51.877 27.186"><defs><style>.a{fill:#263238;}</style></defs><path class="a" d="M64.585,145.423a17.428,17.428,0,0,0-6.853-1.341l-20.17-11.3a2.594,2.594,0,0,0-3.26.6l-3.373,4.048c-.4.377-4.618,4.079-10.406-1.313a2.576,2.576,0,0,0-1.762-.691h-.167A2.6,2.6,0,0,0,16,138.027v19.022a2.6,2.6,0,0,0,2.594,2.594H57.5a10.387,10.387,0,0,0,10.375-10.375C67.877,147.753,66.708,146.388,64.585,145.423Zm1.563,3.844c0,.773-.852,1.621-2.279,2.27a15.159,15.159,0,0,1-5.5,1.17v-6.88a15.16,15.16,0,0,1,5.5,1.17C65.3,147.646,66.148,148.494,66.148,149.267ZM35.631,134.5a.865.865,0,0,1,1.087-.2l2.4,1.346-1.345,1.882a.865.865,0,1,0,1.407,1.005l1.456-2.037,2.893,1.62L42.1,140.118a.865.865,0,0,0,1.407,1.005l1.544-2.162,2.893,1.62-1.521,2.13a.865.865,0,1,0,1.407,1.005l1.632-2.285,2.893,1.62-1.609,2.253a.865.865,0,0,0,1.407,1.005l1.72-2.408,2.764,1.548v7.275H53.668l-2.342-3.9a.865.865,0,0,0-.3-.3L32.878,137.8Zm-17.9,13.231,3.442.688a4.335,4.335,0,0,1,3.475,4.239v.07H17.729Zm3.781-1.007-3.781-.757V141.08c.191.151.4.309.635.473a13.976,13.976,0,0,0,6.932,2.488q.514.038,1.028.038a16.554,16.554,0,0,0,8.943-2.859L49.956,149.9l1.7,2.826H26.375v-.07A6.069,6.069,0,0,0,21.51,146.72Zm-2.916-9.558h.167a.852.852,0,0,1,.584.227c2.056,1.915,5.3,4.022,9.1,3.179a8.4,8.4,0,0,0,3.209-1.486l1.932,1.142a13.418,13.418,0,0,1-9.885,1.834,11.69,11.69,0,0,1-5.968-3.34v-.692A.866.866,0,0,1,18.594,137.162ZM57.5,157.913H18.594a.866.866,0,0,1-.865-.865v-2.594H57.5a17.587,17.587,0,0,0,7.083-1.344,9.516,9.516,0,0,0,.867-.447A8.659,8.659,0,0,1,57.5,157.913Z" transform="translate(-16 -132.456)"/></svg>