<svg xmlns="http://www.w3.org/2000/svg" width="22.749" height="19.862" viewBox="0 0 22.749 19.862"><defs><style>.a{fill:#707070;}</style></defs><g transform="translate(0 -31.05)"><g transform="translate(0 31.05)"><path class="a" d="M252.825,263.75h-3.091a1.535,1.535,0,0,0-1.534,1.534v2.371a1.535,1.535,0,0,0,1.534,1.534h3.091a1.535,1.535,0,0,0,1.534-1.534v-2.371A1.535,1.535,0,0,0,252.825,263.75Zm.418,3.9a.42.42,0,0,1-.418.418h-3.091a.42.42,0,0,1-.418-.418v-2.371a.42.42,0,0,1,.418-.418h3.091a.42.42,0,0,1,.418.418Z" transform="translate(-236.663 -252.934)"/><path class="a" d="M22.749,37.558a.518.518,0,0,0-.074-.274l-3.384-5.95a.561.561,0,0,0-.483-.284H3.937a.551.551,0,0,0-.483.284L.074,37.283A.564.564,0,0,0,0,37.558a3.263,3.263,0,0,0,1.952,2.984v9.812a.559.559,0,0,0,.558.558H20.234a.559.559,0,0,0,.558-.558V40.611a.246.246,0,0,0,0-.06A3.272,3.272,0,0,0,22.749,37.558ZM4.262,32.17H18.481l2.645,4.653H1.622ZM16.19,37.934a2.144,2.144,0,0,1-4.221,0Zm-5.406,0a2.147,2.147,0,0,1-4.225,0Zm-9.631,0H5.378a2.147,2.147,0,0,1-4.225,0ZM9.371,49.8H6.164V43.777a.794.794,0,0,1,.795-.795H8.581a.794.794,0,0,1,.795.795V49.8Zm10.305,0h-9.19V43.777a1.913,1.913,0,0,0-1.91-1.91H6.954a1.913,1.913,0,0,0-1.91,1.91V49.8H3.068V40.816c.065,0,.13,0,.2,0A3.259,3.259,0,0,0,5.968,39.38a3.26,3.26,0,0,0,5.411,0,3.251,3.251,0,0,0,5.4,0,3.259,3.259,0,0,0,2.705,1.441c.065,0,.126,0,.191,0V49.8Zm-.191-10.091a2.143,2.143,0,0,1-2.11-1.766H21.6A2.156,2.156,0,0,1,19.485,39.705Z" transform="translate(0 -31.05)"/></g></g></svg>