<svg xmlns="http://www.w3.org/2000/svg" width="20.437" height="20.438" viewBox="0 0 20.437 20.438"><defs><style>.a{fill:#263238;}</style></defs><g transform="translate(0 0)"><path class="a" d="M.358,1.95,1.72,4.333a.34.34,0,0,0,.213.161L3.2,4.812,7.561,9.17l.482-.481L3.617,4.263a.34.34,0,0,0-.158-.09L2.238,3.867l-1.16-2.03L2.072.842,4.1,2,4.41,3.224a.34.34,0,0,0,.09.158L8.926,7.808l.481-.482L5.049,2.969,4.731,1.7a.341.341,0,0,0-.161-.213L2.186.124a.34.34,0,0,0-.409.055L.416,1.54a.34.34,0,0,0-.058.409Zm0,0" transform="translate(-0.313 -0.076)"/><path class="a" d="M181.953,174.2l-7.49,7.491-.482-.482,7.491-7.49Zm0,0" transform="translate(-167.753 -167.49)"/><path class="a" d="M51.45,399a.34.34,0,0,0-.292-.165H49.115a.34.34,0,0,0-.292.165L47.8,400.7a.34.34,0,0,0,0,.351l1.021,1.7a.34.34,0,0,0,.292.165h2.043a.341.341,0,0,0,.292-.165l1.021-1.7a.34.34,0,0,0,0-.351Zm-.484,3.24H49.308l-.817-1.362.817-1.362h1.658l.817,1.362Zm0,0" transform="translate(-46.051 -384.535)"/><path class="a" d="M16.617,8.172A4.072,4.072,0,0,0,20.577,3.1a.34.34,0,0,0-.571-.159L17.887,5.058,16.205,4.5l-.561-1.681L17.764.7A.341.341,0,0,0,17.6.126a4.073,4.073,0,0,0-5.073,3.961,4,4,0,0,0,.083.8L5.157,12.341a4.017,4.017,0,0,0-.8-.083,4.086,4.086,0,1,0,4.086,4.086,4.007,4.007,0,0,0-.083-.8l1.785-1.785.781.781a.341.341,0,0,0,.482,0l.17-.17a.382.382,0,0,1,.541.539h0l-.17.17a.34.34,0,0,0,0,.481l4.062,4.062a2.748,2.748,0,1,0,3.9-3.869l-.018-.018-4.062-4.061a.34.34,0,0,0-.481,0l-.17.17a.382.382,0,0,1-.541-.539h0l.17-.17a.34.34,0,0,0,0-.481l-.781-.781,1.785-1.785a4.006,4.006,0,0,0,.8.083Zm1.338,11.576a2.069,2.069,0,0,1-.724-.132l2.659-2.659a2.065,2.065,0,0,1-1.935,2.791ZM14.1,10.9a1.063,1.063,0,0,0,1.5,1.5l3.821,3.824c.041.042.08.085.118.13l-2.911,2.911c-.045-.037-.089-.076-.13-.118l-3.824-3.824a1.063,1.063,0,0,0-1.5-1.5l-.545-.545,2.926-2.922Zm1.375-3.424L7.748,15.2a.341.341,0,0,0-.09.324,3.427,3.427,0,1,1-2.476-2.476.343.343,0,0,0,.324-.09l7.722-7.722a.34.34,0,0,0,.09-.323A3.388,3.388,0,0,1,16.81.687l-1.8,1.8a.34.34,0,0,0-.082.348l.681,2.043a.341.341,0,0,0,.216.215l2.043.681a.34.34,0,0,0,.348-.082l1.8-1.8c0,.065.006.129.006.193a3.387,3.387,0,0,1-4.228,3.3.341.341,0,0,0-.324.09h0Zm0,0" transform="translate(-0.273 0)"/><path class="a" d="M386.776,386.03l-.482.482-3.4-3.4.481-.482Zm0,0" transform="translate(-369.171 -368.905)"/></g></svg>