<svg xmlns="http://www.w3.org/2000/svg" width="36.712" height="39.333" viewBox="0 0 36.712 39.333"><defs><style>.a{fill:#222d32;}</style></defs><g transform="translate(-0.999)"><path class="a" d="M37.711,34.089C37.285,22.945,33.968,11.367,30.5,4.458V1.311A1.311,1.311,0,0,0,29.189,0H9.522A1.311,1.311,0,0,0,8.211,1.311v3.12a68.833,68.833,0,0,0-3.579,9.178A78.746,78.746,0,0,0,1,34.089a.656.656,0,0,0,.256.544c.243.164,6.215,4.7,18.1,4.7h1.377C31.693,39,37.219,34.823,37.455,34.64A.656.656,0,0,0,37.711,34.089ZM29.189,3.933H26.567V1.311h2.622ZM21.322,1.311h3.933V3.933H21.322ZM20.011,3.933H13.455V1.311h6.556ZM9.522,1.311h2.622V3.933H9.522ZM2.311,33.761A77.612,77.612,0,0,1,5.739,14.422H8.211a3.278,3.278,0,0,0,3.278-3.278V7.867a.656.656,0,0,0-1.311,0v3.278a1.967,1.967,0,0,1-1.967,1.967H6.159A63.59,63.59,0,0,1,9.273,5.244h2.871a.656.656,0,1,0,1.311,0h6.556V38.022h-.656C9.319,38.022,3.622,34.607,2.311,33.761Zm19.011,4.215V5.244h3.933a.656.656,0,1,0,1.311,0h2.871a64.331,64.331,0,0,1,3.12,7.867H30.5a1.967,1.967,0,0,1-1.967-1.967V7.867a.656.656,0,1,0-1.311,0v3.278A3.278,3.278,0,0,0,30.5,14.422h2.478A77.519,77.519,0,0,1,36.4,33.761C35.213,34.548,30.172,37.57,21.322,37.976Z"/><ellipse class="a" cx="1" cy="0.5" rx="1" ry="0.5" transform="translate(16.999 7.333)"/><ellipse class="a" cx="1" cy="0.5" rx="1" ry="0.5" transform="translate(16.999 12.333)"/><circle class="a" cx="1" cy="1" r="1" transform="translate(16.999 17.333)"/><ellipse class="a" cx="1" cy="0.5" rx="1" ry="0.5" transform="translate(16.999 23.333)"/><ellipse class="a" cx="1" cy="0.5" rx="1" ry="0.5" transform="translate(16.999 28.333)"/><ellipse class="a" cx="1" cy="0.5" rx="1" ry="0.5" transform="translate(16.999 33.333)"/></g></svg>