<svg xmlns="http://www.w3.org/2000/svg" width="29.319" height="50.16" viewBox="0 0 29.319 50.16"><defs><style>.a{fill:#222d32;}</style></defs><g transform="translate(-90.958)"><g transform="translate(90.958 0)"><path class="a" d="M120.277,49.519,118.838.6a.623.623,0,0,0-.623-.6h-25.2a.623.623,0,0,0-.623.6l-1.43,48.914a.623.623,0,0,0,.6.641h7.58a.623.623,0,0,0,.609-.495l5.87-28.205,5.87,28.205a.623.623,0,0,0,.609.495h7.552a.623.623,0,0,0,.623-.623C120.277,49.531,120.277,49.525,120.277,49.519Zm-2.328-36.866c-1.489-.6-2.232-4.949-2.332-8.4H117.7Zm-4.28-11.4h3.941l.055,1.778h-4Zm-7.424,0h6.182V3.015l-5.394.014h-.788Zm.165,3.024v8.363a2.2,2.2,0,0,1-1.576-2.108V4.275ZM98.565,1.251h6.416V3.015l-.77.014H98.565Zm-4.931,0h3.684V3.015H93.579Zm-.092,3.011h2.085c-.1,3.446-.843,7.79-2.333,8.4ZM112.61,48.909l-6.379-30.634a.623.623,0,0,0-1.219,0L98.634,48.909H92.218l1.031-34.96c3.079-.458,3.551-7.2,3.616-9.692h6.723v6.273a3.451,3.451,0,0,0,3.446,3.446.623.623,0,0,0,.623-.623v-9.1h6.709c.069,2.493.541,9.257,3.629,9.692l1.017,34.96Z" transform="translate(-90.958 0)"/></g></g></svg>