<svg xmlns="http://www.w3.org/2000/svg" width="33.001" height="48.001" viewBox="0 0 33.001 48.001"><defs><style>.a{fill:#fff;}</style></defs><g transform="translate(-80)"><path class="a" d="M113,24a14.938,14.938,0,0,0-3.775-9.938c0-.017-.008-.033-.014-.049L107.3,8.289a2.245,2.245,0,0,0-1.053-1.261V2.25A2.253,2.253,0,0,0,104,0H92a2.253,2.253,0,0,0-2.25,2.25V7.028A2.246,2.246,0,0,0,88.7,8.289l-1.908,5.724c-.005.016-.009.033-.014.049A15,15,0,0,0,83.69,19.5H82.25A2.253,2.253,0,0,0,80,21.75v4.5a2.253,2.253,0,0,0,2.25,2.25h1.44a15,15,0,0,0,3.085,5.438c0,.016.008.033.014.049L88.7,39.712a2.245,2.245,0,0,0,1.053,1.261v4.778A2.253,2.253,0,0,0,92,48h12a2.253,2.253,0,0,0,2.25-2.25V40.973a2.245,2.245,0,0,0,1.054-1.261l1.908-5.724c.006-.016.01-.033.014-.05A14.937,14.937,0,0,0,113,24ZM90.12,8.763a.749.749,0,0,1,.712-.513h9.419a.75.75,0,1,0,0-1.5h-9V2.25A.751.751,0,0,1,92,1.5h12a.751.751,0,0,1,.75.75v4.5h-1.5a.75.75,0,0,0,0,1.5h1.919a.749.749,0,0,1,.712.513l1.069,3.207a14.971,14.971,0,0,0-17.9,0ZM82.25,27a.751.751,0,0,1-.75-.75v-4.5a.751.751,0,0,1,.75-.75H83.3a15.072,15.072,0,0,0,0,6ZM98,10.5A13.5,13.5,0,1,1,84.5,24,13.516,13.516,0,0,1,98,10.5Zm7.881,28.738a.749.749,0,0,1-.711.513h-1.919a.75.75,0,0,0,0,1.5h1.5v4.5a.751.751,0,0,1-.75.75H92a.751.751,0,0,1-.75-.75v-4.5h9a.75.75,0,0,0,0-1.5H90.832a.749.749,0,0,1-.712-.513l-1.069-3.207a14.971,14.971,0,0,0,17.9,0Z"/><path class="a" d="M156,152a12,12,0,0,0,9.6-19.2.75.75,0,0,0-1.2.9,10.392,10.392,0,0,1,2.072,5.551h-.722a.75.75,0,1,0,0,1.5h.723a10.516,10.516,0,0,1-9.723,9.723v-.723a.75.75,0,1,0-1.5,0v.723a10.516,10.516,0,0,1-9.723-9.723h.723a.75.75,0,0,0,0-1.5h-.723a10.516,10.516,0,0,1,9.723-9.723v.723a.75.75,0,1,0,1.5,0v-.722a10.392,10.392,0,0,1,5.55,2.071.75.75,0,1,0,.9-1.2A12,12,0,1,0,156,152Z" transform="translate(-58 -116)"/><path class="a" d="M264.75,176a.75.75,0,0,0-.75.75v6.75c0,.006,0,.012,0,.019s0,.03,0,.046,0,.02,0,.03,0,.028.006.042,0,.022.007.033.006.025.01.037.007.024.012.036l.012.032c.005.013.011.026.017.039l.014.028c.007.013.014.026.022.039l.009.017,3.75,6a.75.75,0,0,0,1.272-.8l-3.636-5.818V176.75A.75.75,0,0,0,264.75,176Z" transform="translate(-166.75 -159.5)"/></g></svg>